<?xml version="1.0" encoding="UTF-8"?>
<!-- Generator: Ikivo Animator 2.2 (build 2.2.0.10) -->
<!DOCTYPE svg PUBLIC "-//W3C//DTD SVG 1.1 Tiny//EN" "http://www.w3.org/Graphics/SVG/1.1/DTD/svg11-tiny.dtd">
<svg baseProfile="tiny" display="inherit" height="48" id="svg2" version="1.1" viewBox="0 0 48 48" width="48" xmlns="http://www.w3.org/2000/svg" xmlns:xlink="http://www.w3.org/1999/xlink" xmlns:ev="http://www.w3.org/2001/xml-events">
	<g display="inherit" id="g4">
		<rect fill="none" height="48" id="rect6" width="48"/>
	</g>
	<defs display="inherit" id="defs4">
		<linearGradient id="linearGradient6404">
			<stop id="stop6406" offset="0" stop-color="#fcaf3e"/>
			<stop id="stop6408" offset="1" stop-color="#fcaf3e" stop-opacity="0"/>
		</linearGradient>
		<linearGradient id="linearGradient6394">
			<stop id="stop6396" offset="0" stop-color="#f57900"/>
			<stop id="stop6398" offset="1" stop-color="#fcaf3e"/>
		</linearGradient>
		<linearGradient id="linearGradient3444">
			<stop id="stop3446" offset="0" stop-color="#fcaf3e"/>
			<stop id="stop3448" offset="1" stop-color="#f57900"/>
		</linearGradient>
		<linearGradient id="linearGradient3360">
			<stop id="stop3362" offset="0" stop-color="#ffffff"/>
			<stop id="stop3364" offset="1" stop-color="#ffffff" stop-opacity="0"/>
		</linearGradient>
		<linearGradient gradientUnits="userSpaceOnUse" id="linearGradient5385" x1="-10.618" x2="18.455" y1="-9.04" y2="35.779">
			<stop id="stop19" offset="0" stop-color="#ffffff"/>
			<stop id="stop21" offset="1" stop-color="#ffffff" stop-opacity="0"/>
			<stop id="stop48" offset="0" stop-color="#fcaf3e"/>
			<stop id="stop50" offset="1" stop-color="#f57900"/>
		</linearGradient>
		<linearGradient gradientUnits="userSpaceOnUse" id="linearGradient6400" x1="27.688" x2="28.438" y1="21.75" y2="26.438">
			<stop id="stop24" offset="0" stop-color="#f57900"/>
			<stop id="stop26" offset="1" stop-color="#fcaf3e"/>
		</linearGradient>
		<linearGradient id="linearGradient6394-4">
			<stop id="stop6396-8" offset="0" stop-color="#f57900"/>
			<stop id="stop6398-8" offset="1" stop-color="#fcaf3e"/>
		</linearGradient>
		<linearGradient gradientUnits="userSpaceOnUse" id="linearGradient5385-2" x1="-10.618" x2="18.455" y1="-9.04" y2="35.779">
			<stop id="stop3362-5" offset="0" stop-color="#ffffff"/>
			<stop id="stop3364-5" offset="1" stop-color="#ffffff" stop-opacity="0"/>
		</linearGradient>
		<linearGradient id="linearGradient3360-4">
			<stop id="stop40" offset="0" stop-color="#ffffff"/>
			<stop id="stop42" offset="1" stop-color="#ffffff" stop-opacity="0"/>
		</linearGradient>
		<linearGradient id="linearGradient3444-7">
			<stop id="stop36" offset="0" stop-color="#fcaf3e"/>
			<stop id="stop38" offset="1" stop-color="#f57900"/>
		</linearGradient>
		<linearGradient gradientUnits="userSpaceOnUse" id="linearGradient3858" x1="-4.176" x2="9.611" y1="-3.52" y2="5.101">
			<stop id="stop58" offset="0" stop-color="#fcaf3e"/>
			<stop id="stop60" offset="1" stop-color="#f57900"/>
		</linearGradient>
	</defs>
	<metadata id="metadata7"/>
	<g display="inherit" id="layer1">
		<path d="M32.024,35.324 L29.363,44.219 L23.684,36.828 L15.887,41.925 L16.306,32.649 L7.023,31.563 L13.344,24.741 L6.917,17.981 L16.183,16.806 L15.62,7.535 L23.495,12.557 L29.059,5.112 L31.858,13.98 L40.946,11.846 L37.36,20.412 L45.719,24.586 L37.426,28.841 L41.145,37.372 Z" display="inherit" fill="#000000" id="path3430-5" stroke="#000000" stroke-width="1"/>
		<path d="M13.464,13.378 L12.552,26.558 L2.428,18.07 L-6.743,27.581 L-9.043,14.57 L-22.182,15.961 L-15.58,4.516 L-26.539,-2.864 L-14.126,-7.388 L-17.777,-20.086 L-5.36,-15.572 L0.005,-27.646 L6.616,-16.206 L18.487,-22.007 L16.198,-8.994 L29.02,-5.808 L18.902,2.689 L26.676,13.372 L13.464,13.378 Z" fill="url(#linearGradient3858)" id="path3430" stroke="#ce5c00" stroke-dasharray="none" stroke-dashoffset="0" stroke-linecap="round" stroke-linejoin="round" stroke-miterlimit="4" stroke-width="1.418" transform="matrix(0.69,0.155,-0.154,0.686,23.451,22.675)"/>
		<path d="M0.156,-24.844 L-4.219,-15.031 C-4.49,-14.422 -5.183,-14.123 -5.813,-14.344 L-15.875,-18.031 L-12.906,-7.719 C-12.716,-7.074 -13.057,-6.391 -13.688,-6.156 L-23.719,-2.531 L-14.875,3.469 C-14.321,3.84 -14.145,4.574 -14.469,5.156 L-19.813,14.406 L-9.156,13.281 C-8.491,13.223 -7.893,13.685 -7.781,14.344 L-5.938,24.906 L1.5,17.188 C1.967,16.7 2.733,16.659 3.25,17.094 L11.437,23.969 L12.188,13.281 C12.237,12.61 12.796,12.092 13.469,12.094 L24.188,12.094 L17.875,3.438 C17.491,2.895 17.586,2.148 18.094,1.719 L26.281,-5.156 L15.875,-7.75 C15.226,-7.919 14.818,-8.559 14.937,-9.219 L16.813,-19.75 L7.188,-15.063 C6.589,-14.775 5.87,-14.992 5.531,-15.563 L0.156,-24.844 Z" fill="none" id="path3432" opacity="0.54" stroke="#ffffff" stroke-dasharray="none" stroke-dashoffset="0" stroke-linecap="round" stroke-linejoin="miter" stroke-miterlimit="4" stroke-width="1.432" transform="matrix(0.683,0.154,-0.153,0.679,23.548,22.68)"/>
		<path d="M22.906,15 C22.392,15.051 22,15.483 22,16 L22,22 L19,22 C18.623,22 18.277,22.212 18.106,22.548 C17.935,22.884 17.966,23.288 18.188,23.594 L24.188,32.094 C24.377,32.354 24.679,32.508 25,32.508 C25.321,32.508 25.623,32.354 25.813,32.094 L31.813,23.594 C32.034,23.288 32.065,22.884 31.894,22.548 C31.723,22.212 31.377,22 31,22 L28,22 L28,16 C27.998,15.449 27.551,15.002 27,15 L23,15 C22.969,14.999 22.937,14.999 22.906,15 L22.906,15 Z" fill="#d45500" id="path6392" stroke="none" stroke-dashoffset="0" stroke-linecap="round" stroke-linejoin="miter" stroke-miterlimit="4" stroke-width="1"/>
		<path d="M25,31.5 L19,23 L23,23 L23,16 L27,16 L27,23 L31,23 L25,31.5 Z" fill="#ffffff" id="path3436" stroke="none" stroke-dashoffset="0" stroke-linecap="round" stroke-linejoin="miter" stroke-miterlimit="4" stroke-width="1"/>
	</g>
</svg>
