<?xml version="1.0"?>
<!-- Converted with SVG Converter - Version 0.9.5 (Compiled Mon May 30 09:08:51 2011) - Copyright (C) 2011 Nokia -->
<svg xmlns="http://www.w3.org/2000/svg" width="128" version="1.1" display="inherit" height="128" viewBox="0 0 128 128" xmlns:xlink="http://www.w3.org/1999/xlink" baseProfile="tiny" id="svg30611">
 <g display="inherit">
  <rect width="128" fill="none" height="128"/>
 </g>
 <metadata id="metadata754"/>
 <path style="fill:#000000;fill-opacity:1;stroke:none" id="path4059-0" d="m 68.215604,8.437078 c -32.098101,0 -58.207561,26.109459 -58.207561,58.207549 0,32.098099 26.10946,58.207553 58.207561,58.207553 32.098086,0 58.239156,-26.109454 58.239156,-58.207553 0,-32.09809 -26.14107,-58.207549 -58.239156,-58.207549 z m 0,18.52777 c 7.12683,0 13.7644,1.93556 19.539515,5.21687 L 33.752683,86.184156 c -3.28131,-5.77512 -5.21687,-12.41269 -5.21687,-19.539529 0,-21.94298 17.73681,-39.679779 39.679791,-39.679779 z m 35.980546,23.049049 c 2.35569,5.06097 3.69923,10.67834 3.69923,16.63073 -1e-5,21.942989 -17.736811,39.679793 -39.679776,39.679793 -5.952391,1e-5 -11.569781,-1.34354 -16.630731,-3.69923 L 104.19615,50.013897 z"/>
 <defs id="defs3671">
  <linearGradient id="linearGradient2929">
   <stop offset="0" style="stop-color:#efa040;stop-opacity:1;" id="stop2931"/>
   <stop offset="1" style="stop-color:#c0a331;stop-opacity:0" id="stop2933"/>
  </linearGradient>
  <linearGradient id="linearGradient3260-778">
   <stop offset="0" style="stop-color:#ffffff;stop-opacity:1" id="stop2489"/>
   <stop offset="1" style="stop-color:#ffffff;stop-opacity:0" id="stop2491"/>
  </linearGradient>
  <linearGradient id="linearGradient3527">
   <stop offset="0" style="stop-color:#ff0000;stop-opacity:1" id="stop3529"/>
   <stop offset="1" style="stop-color:#7f0000;stop-opacity:1" id="stop3531"/>
  </linearGradient>
  <linearGradient id="linearGradient3551">
   <stop offset="0" style="stop-color:#bf0000;stop-opacity:1" id="stop3553"/>
   <stop offset="1" style="stop-color:#8c0000;stop-opacity:1" id="stop3555"/>
  </linearGradient>
  <linearGradient id="linearGradient3598">
   <stop offset="0" style="stop-color:#ffbfbf;stop-opacity:1" id="stop3600"/>
   <stop offset="1" style="stop-color:#ffbfbf;stop-opacity:0" id="stop3602"/>
  </linearGradient>
  <linearGradient id="linearGradient3671">
   <stop offset="0" style="stop-color:#1a0000;stop-opacity:1" id="stop3673"/>
   <stop offset="1" style="stop-color:#a20000;stop-opacity:0" id="stop3675"/>
  </linearGradient>
  <linearGradient id="linearGradient3706">
   <stop offset="0" style="stop-color:#ffffff;stop-opacity:1" id="stop3708"/>
   <stop offset="1" style="stop-color:#ffffff;stop-opacity:0" id="stop3710"/>
  </linearGradient>
  <linearGradient id="linearGradient3835">
   <stop offset="0" style="stop-color:#ffffff;stop-opacity:1" id="stop3837"/>
   <stop offset="1" style="stop-color:#ffffff;stop-opacity:0" id="stop3839"/>
  </linearGradient>
  <linearGradient gradientTransform="translate(-827.27922,0)" id="linearGradient4262" y1="365.3761" x1="11.843751" y2="206.375" x2="19.390625" gradientUnits="userSpaceOnUse">
   <stop offset="0" style="stop-color:#1a0000;stop-opacity:1" id="stop34"/>
   <stop offset="1" style="stop-color:#a20000;stop-opacity:0" id="stop36"/>
  </linearGradient>
  <linearGradient gradientTransform="translate(75.660426,5.6568543)" id="linearGradient3434" y1="297.4725" x1="74.024384" y2="155.10976" gradientUnits="userSpaceOnUse" x2="14.440878">
   <stop offset="0" style="stop-color:#1a0000;stop-opacity:1" id="stop39"/>
   <stop offset="1" style="stop-color:#a20000;stop-opacity:0" id="stop41"/>
  </linearGradient>
  <linearGradient gradientTransform="translate(75.660426,5.6568543)" id="linearGradient3456" y1="339.1261" x1="4.3614073" y2="232.5502" gradientUnits="userSpaceOnUse" x2="7.3560495">
   <stop offset="0" style="stop-color:#efa040;stop-opacity:1;" id="stop64"/>
   <stop offset="1" style="stop-color:#c0a331;stop-opacity:0" id="stop66"/>
  </linearGradient>
  <linearGradient gradientTransform="translate(75.660426,5.6568543)" id="linearGradient3460" y1="339.1261" x1="4.3614073" y2="232.5502" gradientUnits="userSpaceOnUse" x2="7.3560495">
   <stop offset="0" style="stop-color:#efa040;stop-opacity:1;" id="stop69"/>
   <stop offset="1" style="stop-color:#c0a331;stop-opacity:0" id="stop71"/>
  </linearGradient>
  <linearGradient gradientTransform="matrix(1.0117554,0,0,1.0117554,144.97897,15.322867)" id="linearGradient3467" y1="84.70369" x1="-13.20569" y2="19.43148" gradientUnits="userSpaceOnUse" x2="-84.772652">
   <stop offset="0" style="stop-color:#ffffff;stop-opacity:1" id="stop74"/>
   <stop offset="1" style="stop-color:#ffffff;stop-opacity:0" id="stop76"/>
  </linearGradient>
  <linearGradient gradientTransform="matrix(1.0117554,0,0,1.0117554,144.88314,15.221692)" id="linearGradient3471" y1="-28.999977" x1="-89.75" y2="76.000023" gradientUnits="userSpaceOnUse" x2="-73.8125">
   <stop offset="0" style="stop-color:#ffffff;stop-opacity:1" id="stop79"/>
   <stop offset="1" style="stop-color:#ffffff;stop-opacity:0" id="stop81"/>
  </linearGradient>
  <linearGradient gradientTransform="matrix(1.0117554,0,0,1.0117554,145.1695,15.436852)" id="linearGradient3474" y1="-28.999977" x1="-89.75" y2="76.000023" gradientUnits="userSpaceOnUse" x2="-73.8125">
   <stop offset="0" style="stop-color:#ffbfbf;stop-opacity:1" id="stop84"/>
   <stop offset="1" style="stop-color:#ffbfbf;stop-opacity:0" id="stop86"/>
  </linearGradient>
  <linearGradient gradientTransform="matrix(1.0117554,0,0,1.0117554,64.604781,-224.22382)" id="linearGradient3485" y1="427.06415" x1="12.889311" y2="224.6723" gradientUnits="userSpaceOnUse" x2="6.8439021">
   <stop offset="0" style="stop-color:#1a0000;stop-opacity:1" id="stop94"/>
   <stop offset="1" style="stop-color:#a20000;stop-opacity:0" id="stop96"/>
  </linearGradient>
  <linearGradient gradientTransform="matrix(1.0117554,0,0,1.0117554,64.604781,-224.22382)" id="linearGradient3488" y1="236.8761" x1="3.3437505" y2="351.875" gradientUnits="userSpaceOnUse" x2="0.390625">
   <stop offset="0" style="stop-color:#bf0000;stop-opacity:1" id="stop99"/>
   <stop offset="1" style="stop-color:#8c0000;stop-opacity:1" id="stop101"/>
  </linearGradient>
  <linearGradient id="linearGradient3832" y1="50.777966" x1="31.510117" y2="116.36474" x2="118.0359" gradientUnits="userSpaceOnUse">
   <stop offset="0" style="stop-color:#ff0000;stop-opacity:1" id="stop89"/>
   <stop offset="1" style="stop-color:#7f0000;stop-opacity:1" id="stop91"/>
  </linearGradient>
  <linearGradient id="linearGradient3834" y1="275.21985" x1="-841.90057" y2="275.21985" x2="-805.65057" gradientUnits="userSpaceOnUse">
   <stop offset="0" style="stop-color:#ffffff;stop-opacity:0;" id="stop59"/>
   <stop offset="0.5" style="stop-color:#ffffff;stop-opacity:1;" id="stop3838"/>
   <stop offset="1" style="stop-color:#ffffff;stop-opacity:0" id="stop61"/>
  </linearGradient>
  <linearGradient id="linearGradient3836" y1="280.97046" x1="-845.56" y2="255.877" gradientUnits="userSpaceOnUse" x2="-820.28839">
   <stop offset="0" style="stop-color:#ffffff;stop-opacity:0;" id="stop67"/>
   <stop offset="0.5" style="stop-color:#ffffff;stop-opacity:1;" id="stop70"/>
   <stop offset="1" style="stop-color:#ffffff;stop-opacity:0" id="stop72"/>
  </linearGradient>
  <linearGradient id="linearGradient3840" y1="339.29858" x1="-839.99103" y2="339.29858" x2="-810.45978" gradientUnits="userSpaceOnUse">
   <stop offset="0" style="stop-color:#ffbfbf;stop-opacity:0;" id="stop54"/>
   <stop offset="0.5" style="stop-color:#ffbfbf;stop-opacity:1;" id="stop3842"/>
   <stop offset="1" style="stop-color:#ffbfbf;stop-opacity:0" id="stop56"/>
  </linearGradient>
  <linearGradient id="linearGradient3844" y1="325.83057" x1="-843.16827" y2="325.30774" x2="-812.37329" gradientUnits="userSpaceOnUse">
   <stop offset="0" style="stop-color:#ffffff;stop-opacity:0;" id="stop80"/>
   <stop offset="0.5" style="stop-color:#ffffff;stop-opacity:1;" id="stop82"/>
   <stop offset="1" style="stop-color:#ffffff;stop-opacity:0" id="stop85"/>
  </linearGradient>
  <linearGradient id="linearGradient3846" y1="232.61047" x1="-848.51819" y2="232.61047" x2="-800.64319" gradientUnits="userSpaceOnUse">
   <stop offset="0" style="stop-color:#ffffff;stop-opacity:0;" id="stop88"/>
   <stop offset="0.5" style="stop-color:#ffffff;stop-opacity:1;" id="stop90"/>
   <stop offset="1" style="stop-color:#ffffff;stop-opacity:0" id="stop92"/>
  </linearGradient>
  <linearGradient gradientTransform="matrix(1.0117554,0,0,1.0117554,64.604781,-224.22382)" id="linearGradient3485-1" y1="427.06415" x1="12.889311" y2="224.6723" gradientUnits="userSpaceOnUse" x2="6.8439021">
   <stop offset="0" style="stop-color:#1a0000;stop-opacity:1" id="stop94-7"/>
   <stop offset="1" style="stop-color:#a20000;stop-opacity:0" id="stop96-4"/>
  </linearGradient>
 </defs>
 <path style="fill:url(#linearGradient3488);fill-opacity:1;stroke:none;stroke-width:7.08661413;stroke-linecap:square;stroke-linejoin:miter;stroke-miterlimit:4;stroke-dasharray:none;stroke-dashoffset:4.15;stroke-opacity:1" id="path3949" d="M 64.984189,5.7924453 C 32.886095,5.7924453 6.776636,31.901906 6.776636,63.999998 C 6.776637,96.09809 32.886095,122.20755 64.984189,122.20755 C 97.082285,122.20755 123.22336,96.09809 123.22336,63.999998 C 123.22336,31.901906 97.082285,5.7924453 64.984189,5.7924453 z M 64.984189,24.320216 C 72.111025,24.320216 78.748591,26.255775 84.523715,29.53708 L 30.521271,83.539524 C 27.239966,77.764404 25.304407,71.126833 25.304407,63.999998 C 25.304407,42.057017 43.041209,24.320216 64.984189,24.320216 z M 100.96474,47.369269 C 103.32043,52.430231 104.66397,58.047608 104.66397,63.999998 C 104.66396,85.94298 86.927167,103.67978 64.984189,103.67978 C 59.031801,103.67979 53.414416,102.33624 48.353459,99.98055 L 100.96474,47.369269 z"/>
 <path style="fill:url(#linearGradient3485);fill-opacity:1;stroke:none;stroke-width:7.08661413000000010;stroke-linecap:square;stroke-linejoin:miter;stroke-miterlimit:4;stroke-dasharray:none;stroke-dashoffset:4.15000000000000040;stroke-opacity:1" id="path4059" d="M 64.984189,5.7924453 C 32.886095,5.7924453 6.776636,31.901906 6.776636,63.999998 C 6.776637,96.09809 32.886095,122.20755 64.984189,122.20755 C 97.082285,122.20755 123.22336,96.09809 123.22336,63.999998 C 123.22336,31.901906 97.082285,5.7924453 64.984189,5.7924453 z M 64.984189,24.320216 C 72.111025,24.320216 78.748591,26.255775 84.523715,29.53708 L 30.521271,83.539524 C 27.239966,77.764404 25.304407,71.126833 25.304407,63.999998 C 25.304407,42.057017 43.041209,24.320216 64.984189,24.320216 z M 100.96474,47.369269 C 103.32043,52.430231 104.66397,58.047608 104.66397,63.999998 C 104.66396,85.94298 86.927167,103.67978 64.984189,103.67978 C 59.031801,103.67979 53.414416,102.33624 48.353459,99.98055 L 100.96474,47.369269 z"/>
 <g id="g4252" transform="matrix(1.0117554,0,0,1.0117554,901.39965,-224.22382)">
  <path style="opacity:1;fill:url(#linearGradient3846);fill-opacity:1.0;stroke:none;stroke-width:7.08661413000000010;stroke-linecap:square;stroke-linejoin:miter;stroke-miterlimit:4;stroke-dasharray:none;stroke-dashoffset:4.15000000000000040;stroke-opacity:1;filter:url(#filter4134)" id="path4063" d="M -825.54942,227.34485 C -833.71236,227.34485 -841.47773,229.07917 -848.51817,232.15735 C -842.55546,235.65656 -833.70711,237.8761 -823.79942,237.8761 C -814.73123,237.8761 -806.54026,236.03053 -800.64317,233.03235 C -808.18413,229.39987 -816.63677,227.34485 -825.54942,227.34485 z"/>
  <path style="fill:url(#linearGradient3844);fill-opacity:1;stroke:none;filter:url(#filter4202)" id="path4069" d="m -809.84989,320.21985 c -5.14454,2.47589 -10.90024,3.875 -17,3.875 -3.67701,0 -14.02498,-0.51127 -17.38989,-1.46875 l 2.63989,6.25 c 10.11424,2.62546 21.40166,3.68667 35.5,1 l -3.71875,-9.65625 z"/>
  <path style="opacity:1;fill:url(#linearGradient3836);fill-opacity:1;stroke:none;stroke-width:7.08661413000000010;stroke-linecap:square;stroke-linejoin:miter;stroke-miterlimit:4;stroke-dasharray:none;stroke-dashoffset:4.15000000000000040;stroke-opacity:1;filter:url(#filter4176)" id="path4083" d="M -816.83807,260.0636 L -841.90057,285.1261 L -839.15057,290.3761 L -805.65057,262.3761 L -816.83807,260.0636 z"/>
 </g>
 <path style="fill:url(#linearGradient3832);fill-opacity:1;stroke:none;stroke-width:0.49999997000000002;stroke-linecap:square;stroke-linejoin:miter;stroke-miterlimit:4;stroke-dasharray:none;stroke-dashoffset:4.15000000000000040;stroke-opacity:0.44090910999999999" id="path3350" d="M 64.987883,9.3663194 C 34.829478,9.3663194 10.353092,33.842706 10.353092,64.001111 C 10.353092,94.159516 34.829478,118.6359 64.987883,118.6359 C 95.146291,118.6359 119.62268,94.159516 119.62268,64.001111 C 119.62268,33.842706 95.146291,9.3663194 64.987883,9.3663194 z M 64.987883,20.735415 C 74.408682,20.735415 83.145531,23.748979 90.252531,28.86747 L 29.854238,89.265756 C 24.735748,82.158761 21.722182,73.42191 21.722182,64.001111 C 21.722182,40.118443 41.105215,20.735415 64.987883,20.735415 z M 101.85847,41.420835 C 105.89766,47.998834 108.25358,55.721299 108.25358,64.001111 C 108.25358,87.883779 88.87055,107.26682 64.987883,107.26682 C 56.708073,107.26682 48.985604,104.91089 42.407608,100.8717 L 101.85847,41.420835 z"/>
 <path style="fill:url(#linearGradient3474);fill-opacity:1;stroke:none;stroke-width:7.08661413;stroke-linecap:square;stroke-linejoin:miter;stroke-miterlimit:4;stroke-dasharray:none;stroke-dashoffset:4.15;stroke-opacity:1" id="path3977" d="M 64.987882,9.3663194 C 34.829477,9.3663194 10.35309,33.842706 10.35309,64.001111 C 10.35309,64.424713 10.375106,64.84451 10.384708,65.265805 C 14.084899,66.009962 17.892519,66.627001 21.83019,67.162847 C 21.75524,66.121892 21.735338,65.060722 21.735338,64.001111 C 21.735338,40.118443 41.105213,20.748568 64.987882,20.748568 C 74.408682,20.748568 83.143155,23.755737 90.250153,28.874228 L 50.06449,69.059888 C 50.149323,69.059989 50.232543,69.059888 50.317428,69.059888 C 59.112854,69.059888 67.617564,68.545046 75.706166,67.573872 L 101.85372,41.426319 C 105.3249,47.07929 107.55597,53.584047 108.11396,60.554819 C 112.01525,59.258578 115.65835,57.824162 119.05356,56.286476 C 115.30012,29.778697 92.526563,9.3663194 64.987882,9.3663194 z"/>
 <path style="fill:url(#linearGradient3471);fill-opacity:1;stroke:none;stroke-width:7.08661413;stroke-linecap:square;stroke-linejoin:miter;stroke-miterlimit:4;stroke-dasharray:none;stroke-dashoffset:4.15;stroke-opacity:1" id="path4007" d="M 64.701528,9.1511595 C 34.543124,9.1511595 10.066732,33.627546 10.066732,63.785951 C 10.066732,63.944706 10.062361,64.102256 10.066732,64.260211 C 10.356387,34.349798 34.723051,10.162915 64.701528,10.162915 C 91.90921,10.162915 114.45111,30.092169 118.60912,56.134551 C 118.66025,56.111493 118.7162,56.094415 118.76721,56.071316 C 115.01377,29.563527 92.240205,9.1511595 64.701528,9.1511595 z M 49.778136,68.844728 C 49.862969,68.844819 49.946189,68.844728 50.031074,68.844728 C 50.285961,68.844728 50.535496,68.845588 50.789891,68.844728 L 89.761445,29.367297 L 49.778136,68.844728 z M 21.44898,64.386681 C 21.447685,64.524866 21.44898,64.659217 21.44898,64.797707 C 21.44898,65.51836 21.482753,66.232436 21.512215,66.947687 C 21.522677,66.949113 21.533381,66.94626 21.543832,66.947687 C 21.483117,66.104429 21.456133,65.244892 21.44898,64.386681 z"/>
 <path style="fill:url(#linearGradient3467);fill-opacity:1;stroke:none;stroke-width:7.08661413;stroke-linecap:square;stroke-linejoin:miter;stroke-miterlimit:4;stroke-dasharray:none;stroke-dashoffset:4.15;stroke-opacity:1" id="path4021" d="M 91.925054,16.461092 C 105.43198,24.804321 115.02323,38.855752 117.34541,55.255588 C 114.35228,56.611159 111.45436,58.485567 108.06888,59.656724 C 108.12125,60.120159 108.08834,59.97308 108.12579,60.440835 C 112.02708,59.144584 115.46783,57.710168 118.86304,56.172492 C 116.45575,39.171602 106.219,24.670466 91.925054,16.461092 z M 65.202059,20.122382 C 41.319391,20.122382 20.735409,39.087555 20.735409,62.970223 C 20.735409,64.029835 20.047082,65.091004 20.122033,66.131959 C 16.720744,65.669091 13.415976,65.133083 10.194183,64.519474 C 10.200881,64.729899 10.189387,64.941295 10.194183,65.151821 C 13.894375,65.895977 17.701995,66.513006 21.639666,67.048862 C 21.564715,66.007908 21.544814,64.946738 21.544814,63.887127 C 21.544814,40.004458 40.914689,20.634583 64.797357,20.634583 C 72.411069,20.634583 79.570928,22.585733 85.791282,26.041151 C 79.229522,22.036573 73.445255,20.122382 65.202059,20.122382 z M 73.998008,66.542985 C 66.593223,67.432044 58.828516,67.918071 50.822486,67.997383 L 49.873965,68.945904 C 49.958801,68.945995 50.042018,68.945904 50.126904,68.945904 C 58.922326,68.945904 67.427041,68.431052 75.515641,67.459888 L 101.03085,41.944681 L 73.998008,66.542985 z"/>
 <path style="fill:none;fill-opacity:1;stroke:url(#linearGradient3456);stroke-width:1.48257178;stroke-linecap:square;stroke-linejoin:miter;stroke-miterlimit:4;stroke-dasharray:none;stroke-dashoffset:4.15000000000000036;stroke-opacity:0.44090910999999999;filter:url(#filter4076)" id="path4035" d="M 76.039077,236.53295 C 46.231077,236.53295 22.039078,260.72495 22.039078,290.53295 C 22.039078,320.34095 46.231077,344.53295 76.039077,344.53295 C 105.84708,344.53295 130.03908,320.34095 130.03908,290.53295 C 130.03908,260.72495 105.84708,236.53295 76.039077,236.53295 z M 76.039077,247.76995 C 85.350418,247.76995 93.985755,250.7485 101.01018,255.80752 L 41.313644,315.50405 C 36.254624,308.47963 33.276072,299.84429 33.276072,290.53295 C 33.276072,266.92777 52.433898,247.76995 76.039077,247.76995 z M 112.48127,268.21503 C 116.47353,274.7166 118.80208,282.34934 118.80208,290.53295 C 118.80208,314.13813 99.644256,333.29596 76.039077,333.29596 C 67.855469,333.29596 60.222726,330.96741 53.721158,326.97515 L 112.48127,268.21503 z" transform="matrix(1.0117554,0,0,1.0117554,-11.945064,-229.94717)"/>
 <path style="fill:none;fill-opacity:1;stroke:url(#linearGradient3460);stroke-width:0.87048131;stroke-linecap:square;stroke-linejoin:miter;stroke-miterlimit:4;stroke-dasharray:none;stroke-dashoffset:4.15;stroke-opacity:0.44090911;filter:url(#filter4055)" id="path4049" d="M 76.039077,236.53295 C 46.231077,236.53295 22.039078,260.72495 22.039078,290.53295 C 22.039078,320.34095 46.231077,344.53295 76.039077,344.53295 C 105.84708,344.53295 130.03908,320.34095 130.03908,290.53295 C 130.03908,260.72495 105.84708,236.53295 76.039077,236.53295 z M 76.039077,247.76995 C 85.350418,247.76995 93.985755,250.7485 101.01018,255.80752 L 41.313644,315.50405 C 36.254624,308.47963 33.276072,299.84429 33.276072,290.53295 C 33.276072,266.92777 52.433898,247.76995 76.039077,247.76995 z M 112.48127,268.21503 C 116.47353,274.7166 118.80208,282.34934 118.80208,290.53295 C 118.80208,314.13813 99.644256,333.29596 76.039077,333.29596 C 67.855469,333.29596 60.222726,330.96741 53.721158,326.97515 L 112.48127,268.21503 z" transform="matrix(1.0117554,0,0,1.0117554,-11.945064,-229.94717)"/>
</svg>
