<?xml version="1.0"?>
<!-- Converted with SVG Converter - Version 0.9.5 (Compiled Mon May 30 09:08:51 2011) - Copyright (C) 2011 Nokia -->
<svg xmlns="http://www.w3.org/2000/svg" width="58" version="1.2" display="inherit" height="40" viewBox="0 0 58 40" xmlns:xlink="http://www.w3.org/1999/xlink" baseProfile="tiny" id="Livello_1" xml:space="preserve">
 <g display="inherit" id="g4">
  <rect width="58" fill="none" height="40" id="rect6"/>
 </g>
 <metadata id="metadata14"/>
 <defs display="inherit" id="defs12"/>
 <g display="inherit" id="IconaSettings" transform="matrix(3.053,0,0,3.053,-0.196,8.229)">
  <g display="inherit" id="g2161" transform="matrix(0.856,-0.518,0.518,0.856,0.974,8.191)">
   <path fill="#1a171b" stroke="none" id="path3" d="M14.906,0.406 C14.206,0.418 13.467,0.604 12.813,1 C11.393,1.859 10.604,3.438 10.906,4.875 L9.548,5.674 L10.329,6.361 L12.121,5.304 C11.462,4.216 11.99,2.662 13.344,1.844 C13.845,1.54 14.388,1.417 14.906,1.406 C15.372,1.397 15.788,1.497 16.156,1.688 C15.361,2.152 14.583,2.551 14.031,3 C13.714,3.258 13.433,3.545 13.313,3.938 C13.192,4.33 13.299,4.784 13.563,5.156 C13.82,5.521 14.168,5.78 14.563,5.844 C14.957,5.908 15.352,5.78 15.719,5.625 C16.343,5.361 17.033,4.909 17.781,4.438 C17.764,4.64 17.738,4.849 17.656,5.063 C17.426,5.661 16.934,6.243 16.25,6.656 C15.566,7.07 14.793,7.23 14.156,7.156 C13.519,7.082 12.979,6.757 12.696,6.289 L11.271,7.142 L12.083,7.83 L12.594,7.563 C13.021,7.869 13.527,8.063 14.063,8.125 C14.938,8.227 15.889,8.052 16.75,7.531 C17.611,7.01 18.246,6.229 18.563,5.406 C18.879,4.583 18.866,3.667 18.406,2.906 C17.395,3.528 16.377,4.138 15.344,4.719 C15.07,4.834 14.87,4.863 14.75,4.844 C14.63,4.824 14.553,4.771 14.406,4.563 C14.264,4.362 14.253,4.311 14.281,4.219 C14.31,4.127 14.447,3.977 14.688,3.781 L17.75,1.844 C17.16,0.869 16.073,0.387 14.906,0.406 Z M5.659,8.043 L2.469,9.969 C1.606,10.491 1.173,11.514 1.656,12.313 C2.139,13.111 3.262,13.209 4.125,12.688 L8.222,10.199 L7.409,9.511 L3.594,11.844 C3.088,12.15 2.638,12.009 2.5,11.781 C2.362,11.553 2.463,11.119 2.969,10.813 L6.441,8.699 L5.659,8.043 Z" transform="matrix(0.856,0.518,-0.518,0.856,4.959,-10.079)"/>
  </g>
  <path fill="#1a171b" display="inherit" stroke="none" id="path2166" stroke-width="0.708" d="M13.127,9.972 C13.411,10.204 13.714,10.325 14.03,10.348 C14.346,10.371 14.887,10.22 15.098,9.962 C15.309,9.704 15.288,9.202 15.202,8.897 C15.117,8.592 14.939,8.318 14.655,8.086 L7.925,2.534 L6.983,2.969 L0.962,-1.997 L0.225,-2.263 L0.625,-1.586 L6.646,3.38 L6.396,4.42 L13.127,9.972 Z" transform="matrix(1,0,0,1,0,0)"/>
 </g>
</svg>
