<?xml version="1.0" encoding="UTF-8" standalone="no"?>
<!-- Converted with SVG Converter - Version 0.9.5 (Compiled Mon May 30 09:08:51 2011) - Copyright (C) 2011 Nokia -->

<svg
   xmlns:dc="http://purl.org/dc/elements/1.1/"
   xmlns:cc="http://creativecommons.org/ns#"
   xmlns:rdf="http://www.w3.org/1999/02/22-rdf-syntax-ns#"
   xmlns:svg="http://www.w3.org/2000/svg"
   xmlns="http://www.w3.org/2000/svg"
   xmlns:xlink="http://www.w3.org/1999/xlink"
   xmlns:sodipodi="http://sodipodi.sourceforge.net/DTD/sodipodi-0.dtd"
   xmlns:inkscape="http://www.inkscape.org/namespaces/inkscape"
   width="48"
   version="1.0"
   height="48"
   id="svg2"
   inkscape:version="0.48.1 "
   sodipodi:docname="update.svg">
  <sodipodi:namedview
     pagecolor="#ffffff"
     bordercolor="#666666"
     borderopacity="1"
     objecttolerance="10"
     gridtolerance="10"
     guidetolerance="10"
     inkscape:pageopacity="0"
     inkscape:pageshadow="2"
     inkscape:window-width="1498"
     inkscape:window-height="913"
     id="namedview70"
     showgrid="false"
     inkscape:zoom="5.0416667"
     inkscape:cx="-16.264463"
     inkscape:cy="24"
     inkscape:window-x="0"
     inkscape:window-y="0"
     inkscape:window-maximized="0"
     inkscape:current-layer="layer1" />
  <g
     display="inherit"
     id="g4">
    <rect
       fill="none"
       height="48"
       width="48"
       id="rect6" />
  </g>
  <defs
     id="defs4">
    <linearGradient
       id="linearGradient6404">
      <stop
         offset="0"
         style="stop-color:#fcaf3e;stop-opacity:1;"
         id="stop6406" />
      <stop
         offset="1"
         style="stop-color:#fcaf3e;stop-opacity:0;"
         id="stop6408" />
    </linearGradient>
    <linearGradient
       id="linearGradient6394">
      <stop
         offset="0"
         style="stop-color:#f57900;stop-opacity:1;"
         id="stop6396" />
      <stop
         offset="1"
         style="stop-color:#fcaf3e;stop-opacity:1"
         id="stop6398" />
    </linearGradient>
    <linearGradient
       id="linearGradient3444">
      <stop
         offset="0"
         style="stop-color:#fcaf3e;stop-opacity:1"
         id="stop3446" />
      <stop
         offset="1"
         style="stop-color:#f57900;stop-opacity:1"
         id="stop3448" />
    </linearGradient>
    <linearGradient
       id="linearGradient3360">
      <stop
         offset="0"
         style="stop-color:#ffffff;stop-opacity:1;"
         id="stop3362" />
      <stop
         offset="1"
         style="stop-color:#ffffff;stop-opacity:0;"
         id="stop3364" />
    </linearGradient>
    <linearGradient
       id="linearGradient5385"
       y1="-9.0397129"
       x1="-10.618274"
       y2="35.779209"
       gradientUnits="userSpaceOnUse"
       x2="18.455231"
       xlink:href="#linearGradient3444-7">
      <stop
         offset="0"
         style="stop-color:#ffffff;stop-opacity:1;"
         id="stop19" />
      <stop
         offset="1"
         style="stop-color:#ffffff;stop-opacity:0;"
         id="stop21" />
    </linearGradient>
    <linearGradient
       id="linearGradient6400"
       y1="21.75"
       x1="27.6875"
       y2="26.4375"
       x2="28.4375"
       gradientUnits="userSpaceOnUse">
      <stop
         offset="0"
         style="stop-color:#f57900;stop-opacity:1;"
         id="stop24" />
      <stop
         offset="1"
         style="stop-color:#fcaf3e;stop-opacity:1"
         id="stop26" />
    </linearGradient>
    <radialGradient
       fx="27.5"
       fy="19.095654"
       cx="27.5"
       cy="19.095654"
       gradientTransform="matrix(15.000008,0,0,19.224616,-385.00024,-346.98161)"
       id="radialGradient6410"
       r="0.50000006"
       gradientUnits="userSpaceOnUse">
      <stop
         offset="0"
         style="stop-color:#fcaf3e;stop-opacity:1;"
         id="stop29" />
      <stop
         offset="1"
         style="stop-color:#fcaf3e;stop-opacity:0;"
         id="stop31" />
    </radialGradient>
    <linearGradient
       id="linearGradient6394-4">
      <stop
         offset="0"
         style="stop-color:#f57900;stop-opacity:1;"
         id="stop6396-8" />
      <stop
         offset="1"
         style="stop-color:#fcaf3e;stop-opacity:1"
         id="stop6398-8" />
    </linearGradient>
    <linearGradient
       id="linearGradient5385-2"
       y1="-9.0397129"
       x1="-10.618274"
       y2="35.779209"
       gradientUnits="userSpaceOnUse"
       x2="18.455231">
      <stop
         offset="0"
         style="stop-color:#ffffff;stop-opacity:1;"
         id="stop3362-5" />
      <stop
         offset="1"
         style="stop-color:#ffffff;stop-opacity:0;"
         id="stop3364-5" />
    </linearGradient>
    <linearGradient
       id="linearGradient3360-4">
      <stop
         offset="0"
         style="stop-color:#ffffff;stop-opacity:1;"
         id="stop40" />
      <stop
         offset="1"
         style="stop-color:#ffffff;stop-opacity:0;"
         id="stop42" />
    </linearGradient>
    <radialGradient
       fx="-9.6242685"
       fy="-13.159472"
       cx="-9.6242685"
       cy="-13.159472"
       gradientTransform="matrix(1.1446622,-0.2591603,0.2642989,1.1833169,6.5723702,9.6762876)"
       id="radialGradient5383-1"
       r="29.191137"
       gradientUnits="userSpaceOnUse">
      <stop
         offset="0"
         style="stop-color:#fcaf3e;stop-opacity:1"
         id="stop3446-1" />
      <stop
         offset="1"
         style="stop-color:#f57900;stop-opacity:1"
         id="stop3448-1" />
    </radialGradient>
    <linearGradient
       id="linearGradient3444-7">
      <stop
         offset="0"
         style="stop-color:#fcaf3e;stop-opacity:1"
         id="stop48" />
      <stop
         offset="1"
         style="stop-color:#f57900;stop-opacity:1"
         id="stop50" />
    </linearGradient>
    <radialGradient
       fx="-9.6242685"
       fy="-13.159472"
       cx="-9.6242685"
       cy="-13.159472"
       gradientTransform="matrix(1.1446622,-0.2591603,0.2642989,1.1833169,6.5723702,9.6762876)"
       r="29.191137"
       id="radialGradient3039"
       gradientUnits="userSpaceOnUse">
      <stop
         offset="0"
         style="stop-color:#fcaf3e;stop-opacity:1"
         id="stop53" />
      <stop
         offset="1"
         style="stop-color:#f57900;stop-opacity:1"
         id="stop55" />
    </radialGradient>
    <linearGradient
       id="linearGradient3858"
       y1="-3.52038"
       x1="-4.1757307"
       y2="5.1012125"
       x2="9.610568"
       gradientUnits="userSpaceOnUse">
      <stop
         offset="0"
         style="stop-color:#fcaf3e;stop-opacity:1"
         id="stop58" />
      <stop
         offset="1"
         style="stop-color:#f57900;stop-opacity:1"
         id="stop60" />
    </linearGradient>
  </defs>
  <metadata
     id="metadata7">
    <rdf:RDF>
      <cc:Work
         rdf:about="">
        <dc:format>image/svg+xml</dc:format>
        <dc:type
           rdf:resource="http://purl.org/dc/dcmitype/StillImage" />
      </cc:Work>
    </rdf:RDF>
  </metadata>
  <g
     id="layer1">
    <path
       style="fill:#000000;fill-opacity:1;stroke:#000000;stroke-width:1.41832316;stroke-linecap:round;stroke-linejoin:round;stroke-miterlimit:4;stroke-opacity:1;stroke-dasharray:none;stroke-dashoffset:0"
       id="path3430-5"
       d="M 13.46404,13.377538 12.552308,26.55842 2.4276384,18.069725 l -9.1709349,9.511092 -2.2995188,-13.01073 -13.1389557,1.390955 6.601602,-11.4448988 -10.959112,-7.3800241 12.41376,-4.5238735 -3.651379,-12.6978086 12.4173814,4.513923 5.36487492,-12.074146 6.61077248,11.439604 11.8708442,-5.800857 -2.28909,13.0125679 12.822314,3.1867168 -10.117863,8.4968066 7.77408,10.6831917 z"
       transform="matrix(0.6902144,0.1552146,-0.1541593,0.6855536,24.991916,24.063634)" />
    <path
       style="fill:url(#linearGradient3858);fill-opacity:1;stroke:#ce5c00;stroke-width:1.41832315999999990;stroke-linecap:round;stroke-linejoin:round;stroke-miterlimit:4;stroke-dasharray:none;stroke-dashoffset:0;stroke-opacity:1"
       id="path3430"
       d="M 13.46404,13.377538 L 12.552308,26.55842 L 2.4276384,18.069725 L -6.7432965,27.580817 L -9.0428153,14.570087 L -22.181771,15.961042 L -15.580169,4.5161432 L -26.539281,-2.8638809 L -14.125521,-7.3877544 L -17.7769,-20.085563 L -5.3595186,-15.57164 L 0.0053563245,-27.645786 L 6.6161288,-16.206182 L 18.486973,-22.007039 L 16.197883,-8.9944711 L 29.020197,-5.8077543 L 18.902334,2.6890523 L 26.676414,13.372244 L 13.46404,13.377538 z "
       transform="matrix(0.6902144,0.1552146,-0.1541593,0.6855536,23.450996,22.674951)" />
    <path
       style="opacity:0.56774194;fill:none;fill-opacity:1;stroke:#ffffff;stroke-width:1.43240832999999990;stroke-linecap:round;stroke-linejoin:miter;stroke-miterlimit:4;stroke-dasharray:none;stroke-dashoffset:0;stroke-opacity:1"
       id="path3432"
       d="M 0.15625,-24.84375 L -4.21875,-15.03125 C -4.4902212,-14.422336 -5.1832918,-14.123364 -5.8125,-14.34375 L -15.875,-18.03125 L -12.90625,-7.71875 C -12.716198,-7.0735936 -13.057344,-6.3913021 -13.6875,-6.15625 L -23.71875,-2.53125 L -14.875,3.46875 C -14.321167,3.8398852 -14.144502,4.5737247 -14.46875,5.15625 L -19.8125,14.40625 L -9.15625,13.28125 C -8.4910776,13.223021 -7.8927034,13.685401 -7.78125,14.34375 L -5.9375,24.90625 L 1.5,17.1875 C 1.9674099,16.69981 2.7331623,16.658787 3.25,17.09375 L 11.4375,23.96875 L 12.1875,13.28125 C 12.236706,12.610485 12.796185,12.091944 13.46875,12.09375 L 24.1875,12.09375 L 17.875,3.4375 C 17.490777,2.8946424 17.585797,2.148058 18.09375,1.71875 L 26.28125,-5.15625 L 15.875,-7.75 C 15.22645,-7.9190262 14.817751,-8.5593202 14.9375,-9.21875 L 16.8125,-19.75 L 7.1875,-15.0625 C 6.5892476,-14.774994 5.870476,-14.991981 5.53125,-15.5625 L 0.15625,-24.84375 z "
       transform="matrix(0.6834225,0.1536895,-0.1526423,0.6788171,23.548156,22.680438)" />
    <path
       style="fill:#d45500;fill-opacity:1;stroke:none;stroke-width:1;stroke-linecap:round;stroke-linejoin:miter;stroke-miterlimit:4;stroke-dashoffset:0;stroke-opacity:1"
       id="path6392"
       d="M 22.90625,15 C 22.391886,15.050545 21.99983,15.483158 22,16 L 22,22 L 19,22 C 18.622709,22.00037 18.277444,22.212129 18.106083,22.54826 C 17.934722,22.884391 17.966168,23.2882 18.1875,23.59375 L 24.1875,32.09375 C 24.37651,32.353765 24.678547,32.507613 25,32.507613 C 25.321453,32.507613 25.62349,32.353765 25.8125,32.09375 L 31.8125,23.59375 C 32.033832,23.2882 32.065278,22.884391 31.893917,22.54826 C 31.722556,22.212129 31.377291,22.00037 31,22 L 28,22 L 28,16 C 27.997544,15.448736 27.551264,15.002456 27,15 L 23,15 C 22.968767,14.998541 22.937483,14.998541 22.90625,15 L 22.90625,15 z " />
    <path
       style="fill:#ffffff;fill-opacity:1.0;stroke:none;stroke-width:1;stroke-linecap:round;stroke-linejoin:miter;stroke-miterlimit:4;stroke-dashoffset:0;stroke-opacity:1"
       id="path3436"
       d="M 25,31.5 L 19,23 L 23,23 L 23,16 L 27,16 L 27,23 L 31,23 L 25,31.5 z " />
  </g>
</svg>
